<?xml version="1.0" encoding="utf-8"?>
<!-- Generator: Adobe Illustrator 16.0.4, SVG Export Plug-In . SVG Version: 6.00 Build 0)  -->
<!DOCTYPE svg PUBLIC "-//W3C//DTD SVG 1.1//EN" "http://www.w3.org/Graphics/SVG/1.1/DTD/svg11.dtd">
<svg version="1.1" id="Laag_1" xmlns="http://www.w3.org/2000/svg" xmlns:xlink="http://www.w3.org/1999/xlink" x="0px" y="0px"
	 width="635px" height="150px" viewBox="93.445 222.14 635 150" enable-background="new 93.445 222.14 635 150"
	 xml:space="preserve">
<g>
	<g>
		<path fill="#555458" d="M318.021,309.427c0,2.598-0.669,4.932-2.007,7.002c-1.338,2.07-3.296,3.691-5.874,4.863
			c-2.578,1.172-5.635,1.758-9.17,1.758c-4.238,0-7.734-0.801-10.488-2.402c-1.953-1.152-3.541-2.689-4.761-4.613
			c-1.221-1.924-1.831-3.795-1.831-5.611c0-1.055,0.366-1.957,1.099-2.709c0.733-0.752,1.665-1.129,2.798-1.129
			c0.918,0,1.694,0.293,2.329,0.879c0.634,0.586,1.176,1.455,1.626,2.607c0.546,1.367,1.138,2.51,1.772,3.428
			c0.634,0.918,1.528,1.676,2.681,2.271c1.152,0.596,2.666,0.895,4.541,0.895c2.578,0,4.673-0.602,6.284-1.803
			s2.417-2.699,2.417-4.496c0-1.426-0.435-2.584-1.304-3.473c-0.869-0.889-1.992-1.566-3.369-2.035
			c-1.377-0.471-3.218-0.969-5.522-1.494c-3.086-0.725-5.669-1.568-7.749-2.535s-3.731-2.285-4.951-3.955
			c-1.221-1.67-1.831-3.745-1.831-6.226c0-2.363,0.645-4.463,1.934-6.299s3.154-3.247,5.596-4.233
			c2.441-0.986,5.312-1.479,8.613-1.479c2.637,0,4.917,0.327,6.841,0.981c1.923,0.654,3.52,1.523,4.79,2.607
			s2.197,2.222,2.783,3.413s0.879,2.354,0.879,3.486c0,1.035-0.366,1.968-1.099,2.798c-0.733,0.83-1.646,1.245-2.739,1.245
			c-0.996,0-1.753-0.249-2.271-0.747s-1.08-1.313-1.685-2.446c-0.781-1.621-1.719-2.886-2.812-3.794
			c-1.094-0.908-2.852-1.362-5.273-1.362c-2.246,0-4.058,0.493-5.435,1.479c-1.377,0.986-2.065,2.173-2.065,3.56
			c0,0.859,0.234,1.602,0.703,2.227c0.469,0.625,1.113,1.162,1.934,1.611c0.821,0.449,1.65,0.801,2.49,1.055
			c0.839,0.254,2.227,0.625,4.16,1.113c2.421,0.566,4.614,1.191,6.577,1.875c1.963,0.684,3.633,1.514,5.01,2.489
			c1.377,0.977,2.451,2.213,3.223,3.707C317.636,305.427,318.021,307.259,318.021,309.427z"/>
		<path fill="#555458" d="M354.789,306.791c0,2.383-0.371,4.58-1.113,6.592c-0.743,2.012-1.816,3.74-3.223,5.186
			c-1.407,1.445-3.086,2.555-5.039,3.324c-1.953,0.771-4.15,1.158-6.592,1.158c-2.422,0-4.6-0.391-6.533-1.172
			s-3.608-1.898-5.024-3.354c-1.417-1.455-2.49-3.176-3.223-5.156c-0.733-1.982-1.099-4.176-1.099-6.578
			c0-2.422,0.371-4.639,1.113-6.65c0.742-2.011,1.806-3.729,3.193-5.155c1.387-1.426,3.066-2.524,5.039-3.296
			c1.973-0.771,4.15-1.157,6.533-1.157c2.421,0,4.619,0.391,6.592,1.172c1.973,0.781,3.662,1.895,5.068,3.34
			c1.406,1.445,2.476,3.165,3.208,5.157S354.789,304.388,354.789,306.791z M346.762,306.791c0-3.262-0.718-5.801-2.153-7.617
			s-3.365-2.725-5.786-2.725c-1.563,0-2.94,0.405-4.131,1.216c-1.191,0.81-2.109,2.007-2.754,3.589s-0.967,3.428-0.967,5.537
			c0,2.09,0.317,3.916,0.952,5.479c0.634,1.562,1.542,2.76,2.725,3.59c1.182,0.828,2.573,1.244,4.175,1.244
			c2.421,0,4.351-0.912,5.786-2.738S346.762,310.013,346.762,306.791z"/>
		<path fill="#555458" d="M389.77,313.148c0,0.994-0.298,2.061-0.894,3.191c-0.596,1.133-1.504,2.213-2.725,3.238
			c-1.221,1.023-2.759,1.85-4.614,2.475s-3.945,0.939-6.27,0.939c-4.941,0-8.799-1.441-11.572-4.322s-4.16-6.742-4.16-11.586
			c0-3.281,0.634-6.182,1.904-8.701c1.27-2.521,3.105-4.468,5.508-5.845c2.403-1.377,5.273-2.065,8.613-2.065
			c2.07,0,3.97,0.303,5.698,0.908s3.193,1.387,4.395,2.344c1.202,0.957,2.119,1.978,2.754,3.062
			c0.635,1.084,0.952,2.094,0.952,3.032c0,0.957-0.356,1.768-1.069,2.432s-1.577,0.996-2.593,0.996c-0.664,0-1.216-0.17-1.655-0.512
			c-0.439-0.344-0.933-0.895-1.479-1.656c-0.977-1.484-1.997-2.598-3.062-3.339c-1.065-0.742-2.417-1.113-4.058-1.113
			c-2.363,0-4.268,0.923-5.713,2.769c-1.445,1.846-2.168,4.369-2.168,7.572c0,1.504,0.186,2.887,0.557,4.146
			c0.371,1.26,0.908,2.334,1.611,3.223s1.553,1.562,2.549,2.021s2.09,0.688,3.281,0.688c1.602,0,2.974-0.371,4.116-1.113
			c1.142-0.74,2.153-1.875,3.032-3.396c0.488-0.898,1.016-1.604,1.582-2.109c0.566-0.508,1.26-0.762,2.08-0.762
			c0.977,0,1.787,0.371,2.432,1.113C389.447,311.517,389.77,312.308,389.77,313.148z"/>
		<path fill="#555458" d="M400.785,286.81c-1.113,0-2.065-0.342-2.856-1.025c-0.791-0.683-1.187-1.65-1.187-2.9
			c0-1.133,0.405-2.065,1.216-2.798s1.753-1.099,2.827-1.099c1.035,0,1.953,0.332,2.754,0.996c0.801,0.664,1.201,1.631,1.201,2.9
			c0,1.23-0.391,2.192-1.172,2.886C402.787,286.464,401.859,286.81,400.785,286.81z M404.74,295.071v23.114
			c0,1.604-0.381,2.812-1.143,3.635c-0.762,0.82-1.729,1.229-2.9,1.229c-1.171,0-2.124-0.42-2.856-1.26
			c-0.732-0.84-1.099-2.041-1.099-3.604v-22.881c0-1.582,0.366-2.773,1.099-3.574c0.733-0.801,1.685-1.201,2.856-1.201
			c1.171,0,2.139,0.4,2.9,1.201C404.358,292.531,404.74,293.646,404.74,295.071z"/>
		<path fill="#555458" d="M433.216,318.539c-1.934,1.504-3.803,2.631-5.609,3.383s-3.832,1.129-6.078,1.129
			c-2.052,0-3.854-0.406-5.406-1.217c-1.552-0.811-2.749-1.908-3.589-3.295c-0.84-1.387-1.26-2.891-1.26-4.512
			c0-2.189,0.693-4.055,2.08-5.598s3.291-2.578,5.713-3.104c0.508-0.117,1.768-0.381,3.778-0.791
			c2.012-0.41,3.736-0.787,5.172-1.129s2.992-0.756,4.674-1.244c-0.1-2.109-0.523-3.658-1.275-4.645s-2.309-1.479-4.672-1.479
			c-2.031,0-3.561,0.283-4.586,0.85c-1.025,0.567-1.904,1.416-2.637,2.549s-1.25,1.881-1.553,2.24
			c-0.303,0.361-0.952,0.543-1.948,0.543c-0.898,0-1.675-0.289-2.329-0.863c-0.654-0.576-0.981-1.314-0.981-2.213
			c0-1.406,0.498-2.773,1.494-4.102s2.549-2.422,4.658-3.281c2.109-0.859,4.735-1.289,7.882-1.289c3.516,0,6.279,0.415,8.291,1.245
			c2.012,0.83,3.432,2.144,4.262,3.94c0.83,1.796,1.246,4.18,1.246,7.147c0,1.875-0.006,3.469-0.016,4.775
			c-0.01,1.309-0.023,2.764-0.043,4.365c0,1.504,0.248,3.07,0.746,4.701c0.498,1.633,0.746,2.682,0.746,3.15
			c0,0.82-0.385,1.566-1.156,2.24s-1.646,1.012-2.621,1.012c-0.82,0-1.631-0.387-2.434-1.158
			C434.964,321.121,434.115,320.003,433.216,318.539z M432.689,306.966c-1.172,0.43-2.877,0.883-5.111,1.361
			c-2.236,0.479-3.785,0.83-4.645,1.055c-0.859,0.227-1.68,0.664-2.461,1.318c-0.781,0.654-1.172,1.566-1.172,2.74
			c0,1.211,0.459,2.24,1.377,3.09c0.918,0.85,2.12,1.273,3.604,1.273c1.582,0,3.043-0.346,4.381-1.039s2.318-1.588,2.943-2.682
			c0.723-1.211,1.084-3.203,1.084-5.977V306.966L432.689,306.966z"/>
		<path fill="#555458" d="M448.656,318.187v-34.688c0-1.602,0.355-2.812,1.068-3.633c0.715-0.821,1.676-1.23,2.887-1.23
			s2.188,0.405,2.93,1.216s1.113,2.026,1.113,3.647v34.688c0,1.621-0.375,2.838-1.127,3.646c-0.752,0.811-1.725,1.217-2.916,1.217
			c-1.172,0-2.123-0.42-2.855-1.26S448.656,319.75,448.656,318.187z"/>
		<path fill="#E95E30" d="M498.812,322.318h-13.125c-1.895,0-3.246-0.426-4.059-1.275c-0.811-0.848-1.215-2.201-1.215-4.057V284.7
			c0-1.895,0.414-3.257,1.244-4.087c0.83-0.83,2.174-1.245,4.027-1.245h13.916c2.053,0,3.828,0.127,5.332,0.381
			s2.854,0.742,4.043,1.465c1.018,0.605,1.914,1.372,2.695,2.3c0.781,0.928,1.377,1.953,1.787,3.076s0.615,2.31,0.615,3.56
			c0,4.297-2.148,7.441-6.445,9.434c5.646,1.797,8.467,5.293,8.467,10.488c0,2.402-0.615,4.564-1.846,6.488
			c-1.23,1.926-2.891,3.346-4.98,4.264c-1.309,0.547-2.811,0.934-4.512,1.158C503.058,322.205,501.078,322.318,498.812,322.318z
			 M489.115,285.901v11.104h7.969c2.168,0,3.844-0.205,5.025-0.615c1.18-0.41,2.084-1.191,2.709-2.344
			c0.488-0.82,0.732-1.738,0.732-2.754c0-2.168-0.771-3.608-2.314-4.321c-1.543-0.713-3.896-1.069-7.061-1.069L489.115,285.901
			L489.115,285.901z M498.167,303.246h-9.053v12.539h9.346c5.879,0,8.818-2.119,8.818-6.357c0-2.168-0.762-3.74-2.285-4.717
			S501.195,303.246,498.167,303.246z"/>
		<path fill="#E95E30" d="M531.009,311.507v6.68c0,1.621-0.381,2.838-1.143,3.646c-0.762,0.811-1.729,1.217-2.9,1.217
			c-1.15,0-2.1-0.41-2.842-1.23s-1.113-2.031-1.113-3.633v-22.266c0-3.594,1.299-5.391,3.896-5.391c1.328,0,2.285,0.42,2.871,1.26
			s0.908,2.08,0.967,3.721c0.957-1.641,1.938-2.881,2.943-3.721c1.008-0.84,2.35-1.26,4.029-1.26c1.678,0,3.311,0.42,4.893,1.26
			s2.373,1.953,2.373,3.34c0,0.977-0.338,1.782-1.012,2.417c-0.674,0.634-1.4,0.953-2.182,0.953c-0.293,0-1.002-0.182-2.125-0.542
			c-1.123-0.361-2.113-0.542-2.973-0.542c-1.174,0-2.131,0.308-2.871,0.922c-0.742,0.615-1.318,1.529-1.73,2.74
			c-0.41,1.211-0.691,2.65-0.85,4.32C531.085,307.068,531.009,309.103,531.009,311.507z"/>
		<path fill="#E95E30" d="M577.005,306.791c0,2.383-0.371,4.58-1.113,6.592c-0.74,2.012-1.814,3.74-3.223,5.186
			c-1.406,1.445-3.086,2.555-5.039,3.324c-1.953,0.771-4.15,1.158-6.592,1.158c-2.422,0-4.6-0.391-6.533-1.172
			c-1.932-0.781-3.607-1.898-5.023-3.354s-2.49-3.176-3.223-5.156c-0.732-1.982-1.1-4.176-1.1-6.578c0-2.422,0.371-4.639,1.113-6.65
			c0.742-2.01,1.807-3.729,3.193-5.155c1.385-1.426,3.066-2.524,5.039-3.296s4.15-1.157,6.533-1.157
			c2.422,0,4.619,0.391,6.592,1.172c1.973,0.781,3.662,1.895,5.068,3.34c1.404,1.445,2.475,3.165,3.207,5.157
			S577.005,304.388,577.005,306.791z M568.978,306.791c0-3.262-0.717-5.801-2.152-7.617s-3.363-2.725-5.785-2.725
			c-1.562,0-2.939,0.405-4.131,1.216c-1.193,0.81-2.109,2.007-2.754,3.589c-0.646,1.582-0.969,3.428-0.969,5.537
			c0,2.09,0.318,3.916,0.953,5.479s1.543,2.76,2.725,3.59c1.182,0.828,2.572,1.244,4.176,1.244c2.422,0,4.35-0.912,5.785-2.738
			S568.978,310.013,568.978,306.791z"/>
		<path fill="#E95E30" d="M583.744,291.233h0.879v-4.805c0-1.289,0.035-2.3,0.104-3.032s0.26-1.362,0.57-1.89
			c0.312-0.547,0.762-0.991,1.35-1.333c0.586-0.342,1.238-0.513,1.963-0.513c1.016,0,1.934,0.381,2.754,1.143
			c0.547,0.508,0.893,1.128,1.039,1.86s0.221,1.772,0.221,3.12v5.449h2.93c1.133,0,1.996,0.269,2.594,0.806
			c0.596,0.537,0.893,1.226,0.893,2.065c0,1.074-0.424,1.826-1.273,2.256s-2.064,0.645-3.646,0.645h-1.494v14.707
			c0,1.25,0.043,2.213,0.131,2.887s0.322,1.221,0.703,1.641s1.002,0.631,1.861,0.631c0.469,0,1.104-0.084,1.902-0.25
			c0.801-0.166,1.428-0.248,1.875-0.248c0.646,0,1.227,0.258,1.744,0.775s0.775,1.156,0.775,1.92c0,1.287-0.703,2.273-2.109,2.959
			c-1.406,0.684-3.428,1.023-6.062,1.023c-2.5,0-4.396-0.42-5.686-1.26s-2.133-2.002-2.533-3.486
			c-0.4-1.482-0.602-3.467-0.602-5.945v-15.353h-1.055c-1.152,0-2.031-0.273-2.637-0.82s-0.908-1.24-0.908-2.08
			s0.316-1.528,0.951-2.065C581.613,291.502,582.533,291.233,583.744,291.233z"/>
		<path fill="#E95E30" d="M612.367,283.499v11.865c1.016-1.172,2.008-2.1,2.975-2.783s2.035-1.196,3.207-1.538
			s2.434-0.513,3.779-0.513c2.031,0,3.834,0.43,5.406,1.289c1.57,0.859,2.807,2.109,3.705,3.75c0.566,0.957,0.947,2.026,1.143,3.208
			c0.197,1.182,0.293,2.545,0.293,4.088v15.32c0,1.604-0.365,2.812-1.098,3.635c-0.734,0.82-1.705,1.229-2.916,1.229
			c-2.637,0-3.955-1.621-3.955-4.863v-13.506c0-2.559-0.381-4.525-1.143-5.902s-2.207-2.065-4.336-2.065
			c-1.426,0-2.711,0.405-3.854,1.216c-1.143,0.812-1.996,1.919-2.562,3.326c-0.43,1.191-0.645,3.311-0.645,6.357v10.574
			c0,1.582-0.357,2.789-1.07,3.619s-1.703,1.244-2.973,1.244c-2.639,0-3.955-1.621-3.955-4.863v-34.687
			c0-1.621,0.346-2.837,1.039-3.647s1.666-1.216,2.916-1.216c1.27,0,2.26,0.41,2.973,1.23
			C612.009,280.685,612.367,281.897,612.367,283.499z"/>
		<path fill="#E95E30" d="M663.109,308.753h-15.645c0.02,1.816,0.385,3.418,1.098,4.805c0.715,1.387,1.66,2.432,2.844,3.135
			c1.182,0.703,2.484,1.055,3.91,1.055c0.957,0,1.83-0.111,2.621-0.336c0.791-0.227,1.559-0.576,2.301-1.055
			c0.742-0.48,1.426-0.992,2.051-1.539s1.436-1.289,2.432-2.227c0.41-0.352,0.996-0.527,1.758-0.527c0.82,0,1.484,0.225,1.992,0.674
			s0.764,1.084,0.764,1.904c0,0.723-0.283,1.566-0.852,2.533c-0.566,0.967-1.42,1.896-2.562,2.783
			c-1.143,0.889-2.578,1.627-4.307,2.213s-3.717,0.879-5.963,0.879c-5.137,0-9.131-1.465-11.98-4.395
			c-2.852-2.932-4.277-6.904-4.277-11.924c0-2.363,0.352-4.557,1.055-6.578c0.703-2.021,1.729-3.755,3.076-5.2
			c1.348-1.445,3.008-2.554,4.98-3.325c1.971-0.771,4.16-1.157,6.561-1.157c3.125,0,5.807,0.659,8.043,1.978
			c2.236,1.319,3.91,3.022,5.023,5.111c1.113,2.09,1.67,4.219,1.67,6.387c0,2.012-0.576,3.314-1.729,3.912
			C666.82,308.457,665.199,308.753,663.109,308.753z M647.464,304.212h14.502c-0.193-2.734-0.932-4.781-2.211-6.138
			c-1.279-1.358-2.965-2.036-5.055-2.036c-1.992,0-3.627,0.688-4.906,2.064C648.515,299.48,647.738,301.517,647.464,304.212z"/>
		<path fill="#E95E30" d="M684.378,311.507v6.68c0,1.621-0.381,2.838-1.143,3.646c-0.762,0.811-1.729,1.217-2.9,1.217
			c-1.152,0-2.1-0.41-2.842-1.23s-1.113-2.031-1.113-3.633v-22.266c0-3.594,1.299-5.391,3.896-5.391c1.328,0,2.285,0.42,2.871,1.26
			s0.908,2.08,0.967,3.721c0.957-1.641,1.938-2.881,2.943-3.721s2.35-1.26,4.029-1.26c1.678,0,3.311,0.42,4.893,1.26
			s2.373,1.953,2.373,3.34c0,0.977-0.338,1.782-1.012,2.417c-0.674,0.634-1.4,0.953-2.182,0.953c-0.293,0-1.002-0.182-2.125-0.542
			c-1.123-0.361-2.113-0.542-2.975-0.542c-1.172,0-2.129,0.308-2.869,0.922c-0.742,0.615-1.318,1.529-1.73,2.74
			c-0.41,1.211-0.693,2.65-0.85,4.32S684.378,309.103,684.378,311.507z"/>
		<path fill="#E95E30" d="M726.976,312.591c0,2.207-0.535,4.096-1.609,5.668s-2.662,2.766-4.762,3.574
			c-2.1,0.811-4.652,1.217-7.66,1.217c-2.871,0-5.332-0.439-7.385-1.318c-2.051-0.879-3.562-1.979-4.541-3.297
			c-0.977-1.316-1.465-2.641-1.465-3.969c0-0.879,0.312-1.631,0.939-2.256c0.625-0.625,1.416-0.938,2.373-0.938
			c0.84,0,1.482,0.203,1.934,0.613c0.449,0.41,0.879,0.986,1.289,1.73c0.82,1.426,1.801,2.49,2.943,3.191
			c1.143,0.703,2.699,1.057,4.674,1.057c1.602,0,2.914-0.357,3.939-1.07s1.537-1.527,1.537-2.445c0-1.406-0.531-2.432-1.596-3.076
			c-1.066-0.645-2.818-1.26-5.26-1.846c-2.754-0.684-4.994-1.4-6.725-2.152c-1.729-0.754-3.109-1.744-4.145-2.975
			c-1.037-1.23-1.553-2.744-1.553-4.541c0-1.602,0.479-3.115,1.436-4.542c0.957-1.426,2.367-2.562,4.232-3.413
			s4.115-1.274,6.754-1.274c2.068,0,3.93,0.215,5.58,0.645c1.65,0.43,3.027,1.006,4.131,1.729c1.104,0.723,1.943,1.523,2.52,2.402
			c0.578,0.879,0.865,1.738,0.865,2.578c0,0.917-0.309,1.669-0.924,2.255s-1.488,0.881-2.621,0.881c-0.82,0-1.52-0.234-2.096-0.703
			c-0.576-0.471-1.234-1.172-1.979-2.109c-0.604-0.781-1.316-1.406-2.139-1.875c-0.82-0.469-1.934-0.703-3.34-0.703
			c-1.445,0-2.646,0.308-3.604,0.923c-0.959,0.615-1.436,1.381-1.436,2.3c0,0.84,0.352,1.527,1.055,2.064s1.65,0.982,2.842,1.334
			s2.832,0.781,4.922,1.289c2.48,0.605,4.508,1.328,6.078,2.168c1.572,0.84,2.766,1.83,3.574,2.973
			C726.568,309.826,726.976,311.126,726.976,312.591z"/>
	</g>
	<path fill="#E95E30" d="M259.582,276.172c-5.882-9.276-13.93-14.338-26.346-16.877c-0.113-9.269-3-14.791-5.883-19.47
		c-9.852-16.006-31.508-19.47-45.744-10.873l-30.344,18.83l0,0l-36.315,22.36l-0.192-0.316l0.146,0.246
		c-15.609,9.604-25.983,28.541-13.92,48.396c9.078,14.744,30.683,23.129,48.429,12.041c5.159-3.178,11.904-3.771,16.448,3.6
		c3.911,6.062,0.939,12.803-5.508,16.096l13.216,21.184c16.862-10.043,25.747-31.109,14.099-50.031
		c-11.505-18.68-34.991-20.488-49.168-11.586c-5.158,3.182-13.271,1.564-16.521-3.717c-4.19-7.082-0.744-12.767,4.906-16.247
		l-0.027-0.046l36.022-22.186l0,0l29.034-17.466c14.037-8.647,26.598,10.102,11.883,18.999l-7.316,4.672l11.983,19.451l12.998-7.838
		c12.922-7.958,25.263,10.416,11.429,19.104l-34.1,21l12.582,20.428l37.938-23.021C259.531,316.611,271.149,294.687,259.582,276.172
		z"/>
</g>
</svg>
